<?xml version="1.0" encoding="UTF-8" standalone="no"?>
<!-- Created with Inkscape (http://www.inkscape.org/) -->

<svg
   width="147.45422mm"
   height="155.78197mm"
   viewBox="0 0 147.45422 155.78197"
   version="1.1"
   id="svg1"
   xml:space="preserve"
   inkscape:version="1.3.2 (091e20ef0f, 2023-11-25, custom)"
   sodipodi:docname="drake.svg"
   xmlns:inkscape="http://www.inkscape.org/namespaces/inkscape"
   xmlns:sodipodi="http://sodipodi.sourceforge.net/DTD/sodipodi-0.dtd"
   xmlns:xlink="http://www.w3.org/1999/xlink"
   xmlns="http://www.w3.org/2000/svg"
   xmlns:svg="http://www.w3.org/2000/svg"><sodipodi:namedview
     id="namedview1"
     pagecolor="#505050"
     bordercolor="#eeeeee"
     borderopacity="1"
     inkscape:showpageshadow="0"
     inkscape:pageopacity="0"
     inkscape:pagecheckerboard="0"
     inkscape:deskcolor="#d1d1d1"
     inkscape:document-units="mm"
     inkscape:zoom="1.4142136"
     inkscape:cx="225.56706"
     inkscape:cy="253.49778"
     inkscape:window-width="1920"
     inkscape:window-height="1056"
     inkscape:window-x="0"
     inkscape:window-y="0"
     inkscape:window-maximized="1"
     inkscape:current-layer="layer1" /><defs
     id="defs1"><linearGradient
       id="linearGradient66"
       inkscape:collect="always"><stop
         style="stop-color:#b58900;stop-opacity:1;"
         offset="0"
         id="stop66" /><stop
         style="stop-color:#93a1a1;stop-opacity:1"
         offset="1"
         id="stop67" /></linearGradient><inkscape:path-effect
       effect="bspline"
       id="path-effect26"
       is_visible="true"
       lpeversion="1.3"
       weight="33.333333"
       steps="2"
       helper_size="0"
       apply_no_weight="true"
       apply_with_weight="true"
       only_selected="false"
       uniform="false" /><inkscape:path-effect
       effect="bspline"
       id="path-effect25"
       is_visible="true"
       lpeversion="1.3"
       weight="33.333333"
       steps="2"
       helper_size="0"
       apply_no_weight="true"
       apply_with_weight="true"
       only_selected="false"
       uniform="false" /><inkscape:path-effect
       effect="bspline"
       id="path-effect24"
       is_visible="true"
       lpeversion="1.3"
       weight="33.333333"
       steps="2"
       helper_size="0"
       apply_no_weight="true"
       apply_with_weight="true"
       only_selected="false"
       uniform="false" /><inkscape:path-effect
       effect="bspline"
       id="path-effect23"
       is_visible="true"
       lpeversion="1.3"
       weight="33.333333"
       steps="2"
       helper_size="0"
       apply_no_weight="true"
       apply_with_weight="true"
       only_selected="false"
       uniform="false" /><inkscape:path-effect
       effect="bspline"
       id="path-effect22"
       is_visible="true"
       lpeversion="1.3"
       weight="33.333333"
       steps="2"
       helper_size="0"
       apply_no_weight="true"
       apply_with_weight="true"
       only_selected="false"
       uniform="false" /><inkscape:path-effect
       effect="bspline"
       id="path-effect21"
       is_visible="true"
       lpeversion="1.3"
       weight="33.333333"
       steps="2"
       helper_size="0"
       apply_no_weight="true"
       apply_with_weight="true"
       only_selected="false"
       uniform="false" /><inkscape:path-effect
       effect="bspline"
       id="path-effect20"
       is_visible="true"
       lpeversion="1.3"
       weight="33.333333"
       steps="2"
       helper_size="0"
       apply_no_weight="true"
       apply_with_weight="true"
       only_selected="false"
       uniform="false" /><inkscape:path-effect
       effect="bspline"
       id="path-effect19"
       is_visible="true"
       lpeversion="1.3"
       weight="33.333333"
       steps="2"
       helper_size="0"
       apply_no_weight="true"
       apply_with_weight="true"
       only_selected="false"
       uniform="false" /><inkscape:path-effect
       effect="bspline"
       id="path-effect18"
       is_visible="true"
       lpeversion="1.3"
       weight="33.333333"
       steps="2"
       helper_size="0"
       apply_no_weight="true"
       apply_with_weight="true"
       only_selected="false"
       uniform="false" /><inkscape:path-effect
       effect="bspline"
       id="path-effect16"
       is_visible="true"
       lpeversion="1.3"
       weight="33.333333"
       steps="2"
       helper_size="0"
       apply_no_weight="true"
       apply_with_weight="true"
       only_selected="false"
       uniform="false" /><inkscape:path-effect
       effect="bspline"
       id="path-effect15"
       is_visible="true"
       lpeversion="1.3"
       weight="33.333333"
       steps="2"
       helper_size="0"
       apply_no_weight="true"
       apply_with_weight="true"
       only_selected="false"
       uniform="false" /><inkscape:path-effect
       effect="bspline"
       id="path-effect14"
       is_visible="true"
       lpeversion="1.3"
       weight="33.333333"
       steps="2"
       helper_size="0"
       apply_no_weight="true"
       apply_with_weight="true"
       only_selected="false"
       uniform="false" /><inkscape:path-effect
       effect="bspline"
       id="path-effect13"
       is_visible="true"
       lpeversion="1.3"
       weight="33.333333"
       steps="2"
       helper_size="0"
       apply_no_weight="true"
       apply_with_weight="true"
       only_selected="false"
       uniform="false" /><inkscape:path-effect
       effect="bspline"
       id="path-effect12"
       is_visible="true"
       lpeversion="1.3"
       weight="33.333333"
       steps="2"
       helper_size="0"
       apply_no_weight="true"
       apply_with_weight="true"
       only_selected="false"
       uniform="false" /><inkscape:path-effect
       effect="bspline"
       id="path-effect11"
       is_visible="true"
       lpeversion="1.3"
       weight="33.333333"
       steps="2"
       helper_size="0"
       apply_no_weight="true"
       apply_with_weight="true"
       only_selected="false"
       uniform="false" /><inkscape:path-effect
       effect="bspline"
       id="path-effect10"
       is_visible="true"
       lpeversion="1.3"
       weight="33.333333"
       steps="2"
       helper_size="0"
       apply_no_weight="true"
       apply_with_weight="true"
       only_selected="false"
       uniform="false" /><inkscape:path-effect
       effect="bspline"
       id="path-effect5"
       is_visible="true"
       lpeversion="1.3"
       weight="33.333333"
       steps="2"
       helper_size="0"
       apply_no_weight="true"
       apply_with_weight="true"
       only_selected="false"
       uniform="false" /><inkscape:path-effect
       effect="bspline"
       id="path-effect4"
       is_visible="true"
       lpeversion="1.3"
       weight="33.333333"
       steps="2"
       helper_size="0"
       apply_no_weight="true"
       apply_with_weight="true"
       only_selected="false"
       uniform="false" /><inkscape:path-effect
       effect="bspline"
       id="path-effect3"
       is_visible="true"
       lpeversion="1.3"
       weight="33.333333"
       steps="2"
       helper_size="0"
       apply_no_weight="true"
       apply_with_weight="true"
       only_selected="false"
       uniform="false" /><inkscape:path-effect
       effect="fill_between_many"
       method="originald"
       linkedpaths="#path2,0,1|#path3,0,1|#path4,0,1|#path5,0,1"
       id="path-effect9"
       is_visible="true"
       lpeversion="0"
       join="true"
       close="true"
       autoreverse="true" /><linearGradient
       inkscape:collect="always"
       xlink:href="#linearGradient66"
       id="linearGradient67"
       x1="84.650612"
       y1="107.16468"
       x2="79.557411"
       y2="99.238907"
       gradientUnits="userSpaceOnUse" /></defs><g
     inkscape:label="Layer 1"
     inkscape:groupmode="layer"
     id="layer1"
     transform="translate(-23.008302,-30.280294)"><g
       id="g59"
       inkscape:label="nose"
       style="display:inline;stroke:#002b36"><path
         d="m 167.52983,57.625423 c 0.23436,-0.06287 0.47778,-0.126855 0.63303,-0.180351 0,0 5.2e-4,0 5.2e-4,0 0.0505,-0.01741 0.0941,-0.03408 0.13177,-0.05064 0.0376,-0.01655 0.0694,-0.03338 0.0956,-0.05064 0.0262,-0.01726 0.0472,-0.03577 0.0636,-0.05529 0.0164,-0.01963 0.0282,-0.04059 0.0362,-0.06408 0.0319,-0.09398 0.002,-0.225258 -0.0636,-0.3514 -0.033,-0.06307 -0.0751,-0.124736 -0.13591,-0.179834 -0.0303,-0.02745 -0.0652,-0.05353 -0.10594,-0.077 -0.0408,-0.02346 -0.0876,-0.04489 -0.14107,-0.06305 -0.0536,-0.01814 -0.11447,-0.03329 -0.18139,-0.04599 -0.067,-0.0127 -0.14091,-0.02308 -0.22014,-0.03152 -0.15872,-0.01689 -0.34131,-0.0266 -0.5426,-0.03359 -0.20135,-0.007 -0.42241,-0.01139 -0.66198,-0.02377 -0.23961,-0.01239 -0.49872,-0.03281 -0.77669,-0.07183 -0.41714,-0.05858 -0.87786,-0.159154 -1.41956,-0.245463 -0.18048,-0.02875 -0.37054,-0.05609 -0.5705,-0.07958 -0.40016,-0.04699 -0.8428,-0.07932 -1.29657,-0.116789 -0.45379,-0.03748 -0.91971,-0.08021 -1.36735,-0.147795 -0.22373,-0.03379 -0.44347,-0.07378 -0.65164,-0.117305 -0.41646,-0.08709 -0.78901,-0.188253 -1.06402,-0.281637 -0.13775,-0.04675 -0.25081,-0.09163 -0.33331,-0.131775 -0.041,-0.01997 -0.0748,-0.03904 -0.10129,-0.05684 -0.0263,-0.01778 -0.0464,-0.03473 -0.0599,-0.05064 0,0 -5.2e-4,0 -5.2e-4,0 -0.005,-0.0054 -0.005,-0.01027 -0.008,-0.0155 -0.51853,-0.04117 -1.07109,-0.09229 -2.05414,-0.272335 -1.1139,-0.204013 -2.76115,-0.567564 -4.10363,-0.848527 -1.34249,-0.280963 -2.37979,-0.47944 -3.14141,-0.65164 -0.76163,-0.1722 -1.24786,-0.318388 -1.79885,-0.533818 -0.55099,-0.21543 -1.16698,-0.500354 -1.55598,-0.726054 -0.38901,-0.225699 -0.55108,-0.39199 -0.75913,-0.642338 -0.18878,-0.227156 -0.41981,-0.531035 -0.65009,-0.83354 -0.0831,0.04784 -0.1529,0.09117 -0.21187,0.136942 -0.11156,0.0866 -0.19426,0.185458 -0.23926,0.489893 -0.0452,0.304433 -0.0516,0.814486 0.005,1.183907 0.057,0.369418 0.17809,0.597906 0.37,0.77928 0.1919,0.181376 0.45425,0.315478 0.70487,0.436149 0.25061,0.120675 0.48921,0.228247 0.81958,0.363803 0.2991,0.122727 0.68199,0.270973 1.0635,0.419095 0.86237,-0.0042 1.64761,0.0251 2.30942,0.07596 0.83945,0.06453 1.53186,0.14273 2.25671,0.242879 0.72485,0.100149 1.48205,0.222 2.23708,0.386023 0.75504,0.164024 1.50742,0.370142 2.23862,0.580326 0.7312,0.210185 1.44113,0.424552 2.12338,0.621151 0.68227,0.196599 1.33708,0.375325 2.02572,0.525549 0.68864,0.150223 1.41142,0.271683 2.16473,0.329696 0.75331,0.05801 1.537,0.05246 2.21123,0.05788 0.67422,0.0054 1.23871,0.02216 1.61231,0.08061 0.3736,0.05844 0.55618,0.158937 0.79323,0.239262 0.0956,0.0324 0.2063,0.05828 0.31936,0.08216 z"
         style="display:inline;opacity:1;fill:#cb4b16;stroke:#002b36;stroke-width:0.1"
         id="path58"
         inkscape:label="bottom-lip" /><path
         d="m 146.89129,41.183016 c -0.025,0.0072 -0.0486,0.02283 -0.0698,0.04547 -0.0423,0.04534 -0.0759,0.118129 -0.0729,0.203089 0.003,0.08496 0.0413,0.18193 0.25373,0.6196 0.21247,0.437671 0.59906,1.215992 0.84852,1.732711 0.24945,0.516716 0.36182,0.772063 0.42892,1.100191 0.0333,0.164064 0.0554,0.346055 0.0661,0.546737 0.0107,0.200552 0.01,0.420241 -0.003,0.657841 -0.0251,0.475569 -0.0973,1.025299 -0.18293,1.434021 -0.0856,0.40872 -0.18452,0.676448 -0.38137,0.967382 -0.19686,0.290937 -0.49139,0.605288 -0.83303,0.858863 -0.34165,0.253575 -0.73067,0.446273 -1.07848,0.627352 -0.34781,0.181077 -0.65451,0.350328 -0.87799,0.472322 -0.10536,0.05751 -0.18944,0.103578 -0.26355,0.146245 0.23028,0.302505 0.46131,0.606384 0.65009,0.83354 0.20805,0.250348 0.37012,0.416639 0.75913,0.642338 0.389,0.2257 1.00499,0.510624 1.55598,0.726054 0.55099,0.21543 1.03722,0.361618 1.79885,0.533818 0.76162,0.1722 1.79892,0.370677 3.14141,0.65164 1.34248,0.280963 2.98973,0.644514 4.10363,0.848527 0.98305,0.180042 1.53561,0.231161 2.05414,0.272335 -0.0254,-0.04103 -0.0132,-0.07677 0.0279,-0.109038 0.0154,-0.01205 0.0341,-0.02378 0.0558,-0.03514 0.0436,-0.0228 0.0989,-0.04487 0.15813,-0.06666 0,0 5.2e-4,0 5.2e-4,0 0.23741,-0.08738 0.54787,-0.176137 0.82837,-0.250631 0,0 5.2e-4,0 5.2e-4,0 0.14015,-0.03722 0.27279,-0.07125 0.39791,-0.109037 0.0623,-0.01883 0.12335,-0.03866 0.1819,-0.06046 0.0588,-0.02193 0.11602,-0.04601 0.17105,-0.07286 0,0 5.2e-4,0 5.2e-4,0 0.10989,-0.05368 0.21199,-0.11914 0.31264,-0.19172 0.10066,-0.07259 0.20009,-0.152769 0.30385,-0.235128 0,0 5.2e-4,0 5.2e-4,0 0.10379,-0.08237 0.21215,-0.167315 0.31988,-0.247013 0.10771,-0.07968 0.21493,-0.15455 0.31574,-0.216008 0,0 5.2e-4,0 5.2e-4,0 0.0503,-0.03066 0.099,-0.05819 0.14728,-0.08216 0.0483,-0.02394 0.0964,-0.04471 0.14469,-0.0615 0.0483,-0.01676 0.0979,-0.02963 0.14831,-0.03876 0.0505,-0.0091 0.10295,-0.0145 0.15761,-0.0155 0,0 5.2e-4,0 5.2e-4,0 0.21937,-0.0039 0.48073,0.05937 0.97307,0.21394 0,0 5.2e-4,0 5.2e-4,0 0.24622,0.07731 0.55007,0.177463 0.86713,0.275952 0.15846,0.04922 0.32068,0.09835 0.48007,0.143661 0.15937,0.0453 0.31701,0.08721 0.46612,0.122473 0,0 5.2e-4,0 5.2e-4,0 0.14907,0.03525 0.28999,0.0642 0.42219,0.08682 0.0205,0.0035 0.0378,0.0045 0.0579,0.0078 0.22527,0.03605 0.42359,0.05486 0.58808,0.05684 0.01,1.22e-4 0.0225,0.0015 0.032,0.0016 0,0 5.2e-4,0 5.2e-4,0 0.0921,6.1e-5 0.17333,-0.0052 0.24236,-0.01499 0,0 5.2e-4,0 5.2e-4,0 0.0687,-0.0098 0.12541,-0.02435 0.17259,-0.04393 0.14202,-0.05924 0.19713,-0.165388 0.22893,-0.330729 0.0389,-0.202365 0.0427,-0.495634 0.0444,-0.794267 -0.11778,-0.04045 -0.13557,-0.05044 -0.2682,-0.09612 -0.93507,-0.322006 -2.25681,-0.783101 -3.50211,-1.275891 -1.2453,-0.492795 -2.41409,-1.017434 -3.52847,-1.589567 -1.11437,-0.572138 -2.17423,-1.191704 -3.40651,-2.027784 -0.92947,-0.63063 -1.9069,-1.35765 -2.78226,-2.027783 0,0 -5.1e-4,0 -5.1e-4,0 -0.39392,-0.229566 -0.79027,-0.462773 -1.21595,-0.730705 -0.42572,-0.267966 -0.88099,-0.571101 -1.39009,-0.940511 -0.55095,-0.399761 -1.16419,-0.875505 -1.72806,-1.324467 -0.56375,-0.448851 -1.07851,-0.871208 -1.43093,-1.163236 -0.70495,-0.584182 -0.7626,-0.648474 -0.817,-0.671794 -0.0272,-0.01166 -0.0536,-0.01288 -0.0786,-0.0057 z"
         style="display:inline;opacity:1;fill:#cb4b16;stroke:#002b36;stroke-width:0.1"
         id="path55"
         inkscape:label="top-nose" /><path
         d="m 167.03167,53.469604 c -0.006,0.135942 -0.0165,0.260036 -0.0357,0.361219 -0.0212,0.110227 -0.053,0.194095 -0.11369,0.255281 -0.0606,0.06102 -0.15032,0.09972 -0.28835,0.119373 0,0 -5.2e-4,0 -5.2e-4,0 -0.069,0.0098 -0.15028,0.01505 -0.24236,0.01499 0,0 -5.2e-4,0 -5.2e-4,0 -0.1844,-1.91e-4 -0.41375,-0.02097 -0.678,-0.06615 -0.1322,-0.02262 -0.27312,-0.05156 -0.42219,-0.08682 0,0 -5.2e-4,0 -5.2e-4,0 -0.14911,-0.03526 -0.30675,-0.07717 -0.46612,-0.122473 -0.15939,-0.04531 -0.32161,-0.09444 -0.48007,-0.143661 -0.31706,-0.09849 -0.62091,-0.198643 -0.86713,-0.275952 0,0 -5.2e-4,0 -5.2e-4,0 -0.49234,-0.154565 -0.7537,-0.2178 -0.97307,-0.21394 0,0 -5.2e-4,0 -5.2e-4,0 -0.0547,9.99e-4 -0.10715,0.0064 -0.15761,0.0155 -0.0504,0.0091 -0.1,0.022 -0.14831,0.03876 -0.0483,0.01678 -0.0964,0.03755 -0.14469,0.0615 -0.0483,0.02397 -0.097,0.0515 -0.14728,0.08216 0,0 -5.2e-4,0 -5.2e-4,0 -0.10081,0.06146 -0.20803,0.136329 -0.31574,0.216008 -0.10773,0.0797 -0.21609,0.164644 -0.31988,0.247013 0,0 -5.2e-4,0 -5.2e-4,0 -0.10376,0.08236 -0.20319,0.162536 -0.30385,0.235128 -0.10066,0.07257 -0.20272,0.138066 -0.31264,0.19172 0,0 -5.2e-4,0 -5.2e-4,0 -0.10994,0.05362 -0.22786,0.09553 -0.35295,0.133325 -0.12512,0.03779 -0.25776,0.07182 -0.39791,0.109037 0,0 -5.2e-4,0 -5.2e-4,0 -0.2805,0.07449 -0.59096,0.163246 -0.82837,0.250631 0,0 -5.2e-4,0 -5.2e-4,0 -0.0592,0.0218 -0.11454,0.04386 -0.15813,0.06666 -0.0796,0.04173 -0.11838,0.08792 -0.0837,0.144178 0,0 5.1e-4,0 5.1e-4,0 0.0128,0.02058 0.0324,0.04231 0.0677,0.06614 0.0265,0.01781 0.0603,0.03688 0.10129,0.05684 0.24702,0.120292 0.77255,0.282754 1.39733,0.413412 0.20817,0.04352 0.42791,0.08352 0.65164,0.117305 0.44764,0.06758 0.91356,0.110317 1.36735,0.147795 0.45377,0.03747 0.89641,0.06979 1.29657,0.116789 0.19996,0.02349 0.39002,0.05083 0.5705,0.07958 0.5417,0.08631 1.00242,0.186881 1.41956,0.245463 0.27797,0.03902 0.53708,0.05944 0.77669,0.07183 0.23957,0.01238 0.46063,0.01678 0.66198,0.02377 0.20129,0.007 0.38388,0.0167 0.5426,0.03359 0.0792,0.0084 0.15317,0.01883 0.22014,0.03152 0.0669,0.0127 0.12782,0.02785 0.18139,0.04599 0.0535,0.01815 0.10031,0.03958 0.14107,0.06305 0.0407,0.02347 0.0761,0.04955 0.10646,0.077 0.0608,0.0551 0.10288,0.116763 0.13591,0.179834 0.066,0.126142 0.0955,0.257425 0.0636,0.3514 -0.008,0.02349 -0.0203,0.04445 -0.0367,0.06408 -0.0163,0.01953 -0.0374,0.03803 -0.0636,0.05529 -0.0262,0.01726 -0.058,0.03409 -0.0956,0.05064 -0.0376,0.01656 -0.0813,0.03323 -0.13177,0.05064 0,0 -5.2e-4,0 -5.2e-4,0 -0.15525,0.0535 -0.39867,0.11748 -0.63303,0.180351 0.1672,0.03534 0.34697,0.06255 0.55087,0.06925 0.34176,0.01122 0.73383,-0.02623 1.05833,-0.144694 0.3245,-0.118467 0.58158,-0.317881 0.78496,-0.576709 0.20344,-0.258833 0.35367,-0.577414 0.4284,-0.869198 0.0747,-0.291784 0.0736,-0.556538 0.031,-0.792716 -0.0426,-0.236183 -0.12716,-0.44339 -0.2651,-0.636654 -0.13794,-0.193263 -0.32923,-0.372656 -0.55707,-0.54467 -0.22785,-0.172014 -0.49203,-0.336625 -0.89866,-0.510563 -0.34894,-0.149265 -0.90954,-0.338158 -1.62212,-0.58291 -0.001,0.149316 -0.003,0.297107 -0.009,0.433048 z"
         style="display:inline;opacity:1;fill:#002b36;stroke:#002b36;stroke-width:0.1"
         id="path56"
         inkscape:label="nose-tip" /><ellipse
         style="display:inline;opacity:1;fill:#002b36;stroke:#002b36;stroke-width:0.1;stroke-dasharray:none"
         id="path17"
         cx="158.81909"
         cy="-26.165024"
         rx="1.9236345"
         ry="0.4848429"
         transform="rotate(26.624669)"
         inkscape:label="hole" /></g><path
       d="m 138.29647,75.817594 c -0.75356,0.554316 -1.5075,1.109345 -2.14406,1.606104 -0.65999,0.515042 -1.19847,0.970173 -1.72806,1.431437 -0.52959,0.461266 -1.05041,0.928711 -1.61127,1.370459 -0.56086,0.441749 -1.1615,0.857791 -1.87895,1.347721 -0.71744,0.489931 -1.55119,1.053364 -2.43551,1.5875 -0.88432,0.534136 -1.81932,1.039138 -2.68098,1.559595 -0.86166,0.520459 -1.64996,1.05643 -2.29805,1.390613 -0.64809,0.334182 -1.1559,0.466155 -1.67845,0.573092 -0.52255,0.106937 -1.05995,0.188775 -1.59473,0.256315 -0.53478,0.06754 -1.06673,0.121051 -1.63711,0.12299 -0.53066,0.0018 -1.09741,-0.04466 -1.66347,-0.09043 -0.0132,3.95e-4 -0.0401,0.0093 -0.0522,0.0093 -0.16619,1.29e-4 -0.23162,-0.03554 -0.21756,-0.188103 0.0141,-0.152551 0.10759,-0.422117 0.22428,-0.738973 0.1167,-0.316853 0.25678,-0.680848 0.33228,-1.040763 0.0725,-0.345685 0.0834,-0.687212 0.094,-1.028878 -0.25885,0.01851 -0.51691,0.03704 -0.93741,0.02997 -0.43929,-0.0074 -1.04773,-0.04144 -2.17248,-0.01189 -1.12475,0.02955 -2.76582,0.122757 -4.26899,0.296106 -1.50317,0.173349 -2.86842,0.426872 -4.86689,0.72192 -1.99843,0.295044 -4.62998,0.631707 -7.045044,1.064017 -2.415052,0.432314 -4.613497,0.960053 -6.657991,1.437639 -2.044494,0.477583 -3.935266,0.904885 -5.526278,1.350305 -1.591009,0.44542 -2.882483,0.909186 -4.615222,1.658297 -1.732739,0.749107 -3.906706,1.783554 -6.494694,3.154846 -2.587988,1.371292 -5.589545,3.079179 -7.791256,4.414718 -2.201707,1.335535 -3.60318,2.298769 -5.135087,3.382229 -1.531904,1.08345 -3.194444,2.28716 -4.175972,2.9254 -0.981528,0.63825 -1.282149,0.71105 -1.681035,0.79272 -0.398882,0.0817 -0.895971,0.17227 -1.4149,0.27647 -0.518933,0.10419 -1.059508,0.22152 -1.759583,0.41031 -0.700072,0.18878 -1.559398,0.44913 -2.545064,0.76688 -0.985666,0.31774 -2.097976,0.69311 -2.903182,0.99373 -0.805206,0.30062 -1.303456,0.52615 -1.643311,0.69247 -0.339851,0.16631 -0.521359,0.27319 -0.686263,0.36122 -0.1649,0.088 -0.313029,0.15712 -0.407727,0.25166 -0.0947,0.0945 -0.135991,0.2147 0.05943,0.27285 0.195413,0.0581 0.627216,0.0545 0.798401,0.0672 0.171185,0.0127 0.08189,0.0416 -0.01912,0.0708 -0.101014,0.0292 -0.213669,0.0584 -0.309542,0.16691 -0.09587,0.10849 -0.17486,0.2965 -0.230477,0.50902 -0.05562,0.21251 -0.08768,0.44976 -0.176733,0.55707 -0.08906,0.1073 -0.235349,0.0847 -0.662492,0.14624 -0.427147,0.0615 -1.135168,0.20693 -1.859835,0.37362 -0.724667,0.16669 -1.465713,0.35438 -2.351794,0.55707 -0.886081,0.2027 -1.917411,0.42053 -3.072681,0.77877 -1.15527,0.35823 -2.43459,0.85673 -3.149679,1.17512 -0.715085,0.31839 -0.866077,0.45681 -0.950846,0.56844 -0.08477,0.11163 -0.103139,0.19648 -0.102836,0.25373 3.03e-4,0.0573 0.01972,0.0867 0.0677,0.10542 0.04797,0.0187 0.124514,0.0273 0.212907,0.002 0.08839,-0.0255 0.188295,-0.0845 0.450102,-0.19999 0.261803,-0.11547 0.68568,-0.28736 1.301212,-0.43253 0.615536,-0.14517 1.422887,-0.26373 2.204,-0.35347 0.781114,-0.0897 1.535831,-0.15104 2.491321,-0.0754 0.95549,0.0756 2.111944,0.28797 2.675806,0.41961 0.563858,0.13165 0.53528,0.18281 0.39119,0.27492 -0.14409,0.0921 -0.403676,0.22481 -0.915189,0.43408 -0.511517,0.20927 -1.275189,0.49517 -2.530079,0.99839 -1.254886,0.50322 -3.001188,1.22424 -4.128946,1.59783 -1.127762,0.37358 -1.637105,0.39976 -2.392103,0.51987 -0.754994,0.12011 -1.755654,0.33401 -2.986381,0.61908 -1.230723,0.28508 -2.691221,0.64122 -3.649389,0.90175 -0.958168,0.26052 -1.414095,0.42555 -1.717725,0.55708 -0.303629,0.13153 -0.455087,0.22959 -0.585494,0.34675 -0.130406,0.11715 -0.239342,0.25324 -0.311092,0.41186 -0.07175,0.15862 -0.106292,0.33969 -0.08113,0.47645 0.02516,0.13676 0.109899,0.22917 0.264067,0.28784 0.154165,0.0587 0.378139,0.0835 1.035079,0.0925 0.656937,0.009 1.746704,0.002 2.663403,0.0238 0.916699,0.0216 1.660203,0.0716 2.315621,0.12816 0.655414,0.0566 1.2227,0.11927 1.410766,0.16588 0.18807,0.0466 -0.0033,0.077 -0.244429,0.0873 -0.241163,0.0103 -0.531868,9.3e-4 -0.859379,5.2e-4 -0.327511,-4e-4 -0.691759,0.008 -0.965316,0.0222 -0.273557,0.014 -0.456276,0.0333 -0.564823,0.0977 -0.108548,0.0644 -0.142845,0.17405 -0.0248,0.32195 0.118025,0.1479 0.38811,0.33384 0.860413,0.51779 0.472299,0.18394 1.146903,0.36583 2.279447,0.48628 1.132544,0.12045 2.722998,0.17937 3.717603,0.24339 0.994604,0.064 1.393431,0.13283 1.718241,0.2496 0.32481,0.11678 0.575481,0.28156 1.173055,0.6811 0.597574,0.39954 1.541952,1.0342 2.770373,1.90427 1.228425,0.87006 2.740906,1.97584 4.055567,2.85564 1.314661,0.8798 2.431483,1.53343 3.458704,2.19212 1.027217,0.6587 1.964832,1.32225 3.354317,2.11615 1.389481,0.7939 3.230341,1.71807 4.883939,2.41225 1.653602,0.69416 3.120106,1.15823 4.508769,1.67484 1.388663,0.5166 2.69982,1.08589 4.226099,1.68154 1.526275,0.59566 3.267226,1.21757 4.810042,1.84846 1.542817,0.63088 2.887378,1.27074 4.098458,1.83813 1.21108,0.56738 2.288726,1.06258 3.705717,1.51774 1.416987,0.45516 3.173418,0.87004 4.092256,1.06867 0.918842,0.19864 1.000135,0.18105 1.136365,0.38706 0.13623,0.20601 0.327045,0.63546 0.479558,1.09657 0.152509,0.46111 0.266825,0.95361 0.427364,1.44901 0.160535,0.4954 0.367246,0.99366 0.501261,1.44797 0.134015,0.45432 0.195221,0.86476 0.175183,1.26866 -0.0059,0.11971 -0.04761,0.25889 -0.06563,0.37982 0.45005,0.25604 0.908428,0.51634 1.25367,0.71417 0.428648,0.24562 0.721912,0.41631 1.053166,0.478 0.331254,0.0617 0.700641,0.0146 0.999422,0.0305 0.29878,0.0159 0.527308,0.095 0.809253,0.15555 0.161997,0.0348 0.360081,0.057 0.547254,0.0832 0.0024,-0.0114 5.61e-4,-0.0196 0.0031,-0.031 0.145096,-0.65331 0.46587,-1.45201 0.735356,-1.97145 0.269483,-0.51944 0.487868,-0.75963 1.260388,-1.53893 0.77252,-0.77931 2.099668,-2.09748 2.810681,-2.76934 0.711013,-0.67187 0.805741,-0.69712 2.01073,-0.77514 1.204989,-0.078 3.520132,-0.20891 5.178493,-0.40618 1.65837,-0.19727 2.65993,-0.4612 3.19619,-0.58549 0.53626,-0.12429 0.60711,-0.10871 0.62425,0.0971 0.009,0.11194 -0.0536,0.39062 -0.0827,0.60203 0.66498,0.0596 1.33383,0.11906 1.87068,0.18707 0.60847,0.0771 1.06943,0.1642 1.48984,0.24184 0.42038,0.0777 0.79987,0.14611 1.17512,0.17415 0.13174,0.01 0.26137,-4.8e-4 0.39222,10e-4 0.0646,-0.14384 0.10492,-0.26661 0.22169,-0.4594 0.39037,-0.64446 1.11518,-1.63745 1.51361,-2.13734 0.39842,-0.4999 0.47016,-0.50642 1.24488,-0.7214 0.77472,-0.21497 2.2525,-0.63816 3.7946,-1.15703 1.5421,-0.51888 3.14836,-1.1337 5.23896,-2.0774 2.0906,-0.94371 4.66561,-2.21659 6.80785,-3.45767 2.14225,-1.24109 3.85189,-2.45031 5.61671,-3.89175 1.76482,-1.44143 3.58452,-3.11474 5.11029,-4.60334 1.52573,-1.48857 2.75733,-2.79228 3.74964,-3.95324 0.9923,-1.16096 1.74546,-2.17937 2.45825,-3.33107 0.71275,-1.15167 1.38541,-2.43656 2.01589,-3.7176 0.63049,-1.28105 1.21887,-2.55794 1.73891,-3.85196 0.52008,-1.29401 0.97177,-2.60511 1.29347,-3.82509 0.3217,-1.21997 0.51332,-2.34889 0.61339,-3.93051 0.10011,-1.58161 0.10894,-3.6159 0.0837,-4.97696 -0.0252,-1.361049 -0.0841,-2.048649 -0.20877,-2.821017 -0.12467,-0.772367 -0.31528,-1.629295 -0.58291,-2.561084 -0.26763,-0.931788 -0.61217,-1.938518 -1.04852,-3.026688 -0.43634,-1.088174 -0.96443,-2.257861 -1.52549,-3.371888 -0.56102,-1.114028 -1.15538,-2.172132 -1.72082,-3.092317 -0.56544,-0.920185 -1.10196,-1.702648 -1.84898,-2.696993 -0.74703,-0.994345 -1.70451,-2.200726 -2.80138,-3.414262 -1.09688,-1.213539 -2.33325,-2.433972 -3.25665,-3.389974 -10e-4,-0.0014 -0.002,-0.0023 -0.003,-0.0036 z"
       style="display:inline;opacity:1;fill:#b58900;stroke:#002b36;stroke-width:0.1"
       id="path40"
       inkscape:label="body" /><path
       d="m 137.03298,74.417163 c -1.34992,0.86285 -2.69991,1.726012 -3.59513,2.36523 -0.89538,0.639325 -1.33561,1.055027 -2.10995,1.486731 -0.77434,0.431707 -1.88254,0.879091 -2.61224,1.174089 -0.72971,0.294998 -1.0809,0.43713 -1.63401,0.805119 -0.5531,0.367986 -1.3083,0.96217 -1.91513,1.422652 -0.60683,0.460481 -1.06554,0.787634 -1.56786,1.100191 -0.50231,0.312558 -1.048,0.610222 -1.64538,1.047481 -0.59738,0.437262 -1.24651,1.013896 -1.83348,1.479497 -0.58698,0.4656 -1.11174,0.819995 -1.52239,1.070219 -0.41065,0.250222 -0.70686,0.396482 -0.98857,0.487308 -0.26114,0.0842 -0.49568,0.112282 -0.66301,0.117306 0.56606,0.04577 1.13281,0.0922 1.66347,0.09043 0.57038,-0.0019 1.10233,-0.05545 1.63711,-0.12299 0.53478,-0.06754 1.07218,-0.149378 1.59473,-0.256315 0.52255,-0.106937 1.03036,-0.23891 1.67845,-0.573092 0.64809,-0.334183 1.43639,-0.870154 2.29805,-1.390613 0.86166,-0.520457 1.79666,-1.025459 2.68098,-1.559595 0.88432,-0.534136 1.71807,-1.097569 2.43551,-1.5875 0.71745,-0.48993 1.31809,-0.905972 1.87895,-1.347721 0.56086,-0.441748 1.08168,-0.909193 1.61127,-1.370459 0.52959,-0.461264 1.06807,-0.916395 1.72806,-1.431437 0.63656,-0.496759 1.3905,-1.051788 2.14406,-1.606104 -0.5159,-0.534401 -0.86819,-0.956114 -1.26349,-1.400431 z"
       style="display:inline;opacity:1;fill:#fdf6e3;stroke:#002b36;stroke-width:0.1"
       id="path39"
       inkscape:label="neck-strip" /><path
       d="m 132.78931,30.335099 c -0.62388,-0.01272 -1.26828,3.6e-5 -1.92856,0.03566 -1.32057,0.07122 -2.70408,0.233659 -4.19768,0.571025 -1.4936,0.337361 -3.09734,0.849601 -4.40542,1.470194 -1.30803,0.620593 -2.32016,1.349624 -3.33674,2.251025 -1.01658,0.901406 -2.03788,1.975196 -2.92902,3.157947 -0.89115,1.182752 -1.65208,2.474214 -2.28617,3.784782 -0.63409,1.310568 -1.14122,2.640114 -1.57251,4.100525 -0.43129,1.460415 -0.78694,3.05159 -0.971,4.802808 -0.18406,1.751213 -0.19632,3.662516 -0.18707,5.289083 0.009,1.626562 0.0399,2.968309 0.25838,4.80229 0.21845,1.833985 0.62466,4.160122 1.04076,6.351034 0.41611,2.190911 0.84242,4.246385 1.39062,6.128308 0.54819,1.881924 1.21815,3.590041 1.82986,5.195032 0.61171,1.604987 1.16505,3.107233 1.46761,4.041614 0.30256,0.934376 0.35426,1.300846 0.40618,1.667598 -0.0115,8.28e-4 -0.0303,8.24e-4 -0.0419,0.0015 -0.0107,0.341666 -0.0216,0.683193 -0.094,1.028878 -0.0755,0.359915 -0.21558,0.723911 -0.33228,1.040763 -0.11669,0.316856 -0.21018,0.586423 -0.22428,0.738973 -0.0141,0.152558 0.0514,0.188232 0.21756,0.188103 0.1662,-1.3e-4 0.4335,-0.03578 0.7152,-0.126608 0.28171,-0.09083 0.57792,-0.237087 0.98857,-0.487308 0.41065,-0.250224 0.93541,-0.60462 1.52239,-1.070219 0.58697,-0.465601 1.2361,-1.042235 1.83348,-1.479497 0.59738,-0.437258 1.14307,-0.734923 1.64538,-1.047481 0.50232,-0.312557 0.96103,-0.639711 1.56786,-1.100191 0.60683,-0.460482 1.36203,-1.054667 1.91513,-1.422652 0.55311,-0.367989 0.9043,-0.510121 1.63401,-0.805119 0.7297,-0.294998 1.8379,-0.742382 2.61224,-1.174089 0.77434,-0.431703 1.21457,-0.847406 2.10995,-1.486731 0.89522,-0.639217 2.24521,-1.502381 3.59513,-2.36523 -0.3101,-0.348559 -0.67322,-0.723241 -0.99115,-1.098641 -0.72426,-0.855136 -1.56233,-1.874038 -2.26085,-2.880961 -0.69852,-1.006922 -1.25767,-2.00158 -1.68155,-2.926953 -0.42388,-0.925373 -0.7126,-1.781385 -0.91261,-2.736267 -0.2,-0.954882 -0.31116,-2.00896 -0.35501,-2.760038 -0.0439,-0.751082 -0.0206,-1.199084 0.0279,-1.543575 0.0485,-0.344496 0.12188,-0.585328 0.26045,-0.880567 0.13858,-0.295238 0.34252,-0.645015 0.57619,-0.991154 0.23367,-0.346134 0.49711,-0.688585 0.83096,-1.008724 0.33386,-0.320134 0.73785,-0.617553 1.11983,-0.861446 0.38198,-0.243892 0.74215,-0.434468 1.4335,-0.655774 0.69136,-0.221306 1.71382,-0.473536 3.03496,-0.7059 1.32114,-0.232363 2.9409,-0.444776 4.42712,-0.617017 1.48622,-0.172238 2.83926,-0.304497 4.00906,-0.345198 0.24753,-0.0086 0.45481,6.6e-5 0.68626,-0.001 -0.38151,-0.148123 -0.7644,-0.296367 -1.0635,-0.419095 -0.33037,-0.135556 -0.56897,-0.243128 -0.81959,-0.363803 -0.25062,-0.120672 -0.51296,-0.254773 -0.70486,-0.436149 -0.19191,-0.181375 -0.31301,-0.409861 -0.37001,-0.77928 -0.057,-0.369421 -0.0504,-0.879473 -0.005,-1.183907 0.045,-0.304435 0.12771,-0.403293 0.23927,-0.489893 0.11156,-0.0866 0.25193,-0.161193 0.47542,-0.283187 0.22348,-0.121994 0.53017,-0.291244 0.87798,-0.472322 0.34781,-0.181079 0.73684,-0.373777 1.07849,-0.627352 0.34164,-0.253575 0.63616,-0.567926 0.83302,-0.858863 0.19685,-0.290935 0.29578,-0.558661 0.38138,-0.967382 0.0856,-0.408722 0.15783,-0.958451 0.18293,-1.434021 0.0125,-0.2376 0.0133,-0.457288 0.003,-0.657841 -0.0107,-0.200682 -0.0328,-0.382673 -0.0661,-0.546737 -0.0671,-0.328128 -0.17947,-0.583474 -0.42892,-1.100191 -0.24946,-0.516719 -0.63605,-1.29504 -0.84852,-1.732711 -0.21243,-0.43767 -0.25073,-0.53464 -0.25373,-0.6196 -0.003,-0.08496 0.0306,-0.157749 0.0729,-0.203089 0.0423,-0.04533 0.0939,-0.06311 0.14831,-0.03979 0.0544,0.02332 0.11204,0.08761 0.817,0.671794 0.35242,0.292028 0.86718,0.714384 1.43093,1.163236 0.56388,0.448962 1.17711,0.924705 1.72806,1.324467 0.50911,0.36941 0.96437,0.672544 1.39009,0.940511 0.42582,0.268018 0.82242,0.501067 1.21646,0.730705 -0.28505,-0.218229 -0.60387,-0.454717 -0.84801,-0.648022 -0.99385,-0.78696 -1.57665,-1.308141 -2.01693,-1.81436 -0.44027,-0.506214 -0.73834,-0.997296 -1.14205,-1.651062 -0.4037,-0.653761 -0.9132,-1.47029 -1.45004,-2.31097 -0.53683,-0.840679 -1.1007,-1.705616 -1.62419,-2.449979 -0.52349,-0.744367 -1.00651,-1.368305 -1.59577,-1.984892 -0.58922,-0.616591 -1.28508,-1.225568 -2.04638,-1.784387 -0.7613,-0.558823 -1.58785,-1.067148 -2.42828,-1.441773 -0.84042,-0.374625 -1.6945,-0.615497 -2.64738,-0.858862 -0.95288,-0.243365 -2.00465,-0.489261 -3.1595,-0.622184 -0.57742,-0.06646 -1.18066,-0.104582 -1.80454,-0.117306 z"
       style="display:inline;opacity:1;fill:#2aa198;stroke:#002b36;stroke-width:0.1"
       id="path45"
       inkscape:label="head" /><path
       d="m 104.86337,145.68258 c -0.0245,0.17764 -0.009,0.27518 -0.0692,0.50591 -0.13236,0.50532 -0.36052,1.11926 -0.47284,1.98644 -0.11232,0.8672 -0.10849,1.98743 0.0434,3.17345 0.15191,1.18604 0.4522,2.43803 0.69246,3.73518 0.24026,1.29715 0.42048,2.63981 0.53744,3.69848 0.11696,1.05867 0.17069,1.83287 0.061,2.65513 -0.10973,0.82228 -0.38311,1.69249 -0.6196,2.28359 -0.2365,0.59109 -0.43653,0.90315 -0.89142,1.418 -0.4549,0.51485 -1.16439,1.23209 -1.59629,1.69705 -0.4319,0.46496 -0.58585,0.67765 -0.6537,0.91157 -0.0679,0.23393 -0.05,0.48908 0.0429,0.72037 0.0929,0.2313 0.26059,0.43878 0.49144,0.52038 0.23085,0.0816 0.52512,0.0378 1.05523,-0.26561 0.53012,-0.30342 1.29612,-0.86639 1.70688,-1.17357 0.41074,-0.30719 0.46606,-0.35883 0.66662,0.0155 0.20056,0.37433 0.5464,1.17452 0.75964,1.60507 0.21326,0.43055 0.29408,0.49158 0.81081,0.6935 0.51673,0.20192 1.46935,0.54449 2.28565,0.8139 0.8163,0.26941 1.49618,0.46526 1.98385,0.74259 0.48769,0.27733 0.78282,0.63628 1.1281,0.86661 0.34528,0.23034 0.74062,0.3323 1.56011,0.62529 0.81949,0.29299 2.0633,0.7769 2.76986,1.09451 0.70656,0.31761 0.87611,0.46885 1.02888,0.58136 0.15276,0.11251 0.28856,0.18627 0.39842,0.11472 0.10986,-0.0716 0.19335,-0.2882 0.77153,-0.21963 0.57819,0.0686 1.65101,0.42266 2.39986,0.63976 0.74883,0.21709 1.17393,0.29726 1.61333,0.32608 0.43941,0.0288 0.89355,0.006 1.24386,0.16174 0.10578,0.047 0.19877,0.11223 0.28577,0.18242 -0.0932,-0.2136 -0.18772,-0.42715 -0.3204,-0.64079 -0.14327,-0.23072 -0.32969,-0.4615 -0.47439,-0.6258 -0.1447,-0.1643 -0.24787,-0.26226 -0.2682,-0.41289 -0.0203,-0.15062 0.0425,-0.35413 0.18862,-0.41083 0.14612,-0.0567 0.3754,0.0331 0.56276,0.15348 0.18736,0.12034 0.33247,0.27107 0.49351,0.43821 0.16104,0.16714 0.33786,0.35107 0.44855,0.50178 0.11068,0.15071 0.15537,0.2685 0.19379,0.38551 0.0341,0.10389 0.0631,0.20688 0.092,0.31006 0.0804,-0.0728 0.19246,-0.0712 0.35088,-0.0791 0.21058,-0.0104 0.50289,-0.0385 0.80099,-0.18655 0.29809,-0.14809 0.6021,-0.41632 0.82527,-0.60513 0.22316,-0.18882 0.36518,-0.29806 0.9555,-0.40101 0.59032,-0.10295 1.62882,-0.19941 2.22157,-0.27027 0.59274,-0.0709 0.73981,-0.11597 1.14153,-0.35398 0.40171,-0.23801 1.05832,-0.66894 1.40973,-0.91054 0.35141,-0.2416 0.39744,-0.29403 0.39843,-0.54312 9.8e-4,-0.24909 -0.0432,-0.69507 -0.0326,-0.93018 0.006,-0.14144 0.0352,-0.20257 0.0837,-0.23461 0.0202,-0.16072 0.0412,-0.32412 0.0527,-0.44545 0.014,-0.14792 0.0168,-0.24623 -0.006,-0.35863 -0.023,-0.11241 -0.0718,-0.23912 -0.14366,-0.35554 -0.0619,-0.10018 -0.14157,-0.19252 -0.22273,-0.28422 -0.23242,-0.0852 -0.61365,-0.181 -1.77715,-0.33021 -1.62057,-0.20781 -4.74182,-0.51861 -6.41822,-0.75551 -1.67638,-0.23689 -1.90771,-0.40007 -2.26291,-0.54983 -0.3552,-0.14977 -0.83395,-0.28643 -1.8712,-0.49868 -1.03725,-0.21226 -2.63306,-0.50001 -4.09381,-0.65009 -1.46074,-0.15009 -2.78641,-0.16235 -3.69693,-0.34675 -0.91052,-0.18441 -1.40585,-0.54083 -1.70222,-0.80719 -0.29637,-0.26635 -0.39379,-0.44232 -0.82424,-2.3275 -0.43045,-1.88518 -1.1939,-5.47979 -1.58233,-7.46518 -0.38843,-1.98539 -0.4021,-2.36153 -0.39068,-2.71353 0.0114,-0.352 0.048,-0.67961 0.14883,-0.9896 0.10082,-0.31 0.26603,-0.60261 0.40049,-1.01028 0.13446,-0.40767 0.23821,-0.93037 0.24082,-1.31981 0.003,-0.38945 -0.0957,-0.64532 -0.16382,-1.07384 -0.0681,-0.42852 -0.10606,-1.02989 -0.0971,-1.47846 0.006,-0.31439 0.0818,-0.59265 0.23306,-0.92966 -0.13085,-0.002 -0.26048,0.009 -0.39222,-0.001 -0.37525,-0.028 -0.75472,-0.0965 -1.17512,-0.17415 -0.42041,-0.0776 -0.88137,-0.16474 -1.48984,-0.24184 -0.53685,-0.068 -1.2057,-0.1275 -1.87068,-0.18707 z"
       style="display:inline;opacity:1;fill:#cb4b16;stroke:#002b36;stroke-width:0.1"
       id="path59"
       inkscape:label="right-leg" /><path
       d="m 84.464095,151.60005 c -0.04277,0.28706 -0.08491,0.56402 -0.155029,0.90175 -0.09966,0.48 -0.197749,1.04205 -0.273369,1.43041 -0.07562,0.38836 -0.129053,0.60267 -0.154512,0.97771 -0.02546,0.37503 -0.02335,0.91068 0.04393,1.51671 0.06726,0.60603 0.199647,1.28256 0.504879,2.40088 0.305229,1.11834 0.78325,2.67879 1.069702,3.73776 0.28645,1.05898 0.381681,1.61649 0.496094,2.16369 0.11441,0.54719 0.248431,1.08391 0.333312,1.86087 0.08488,0.77697 0.120406,1.79438 0.09612,2.82412 -0.02429,1.02975 -0.108554,2.07204 -0.160197,2.62826 -0.05164,0.55622 -0.07067,0.62632 -0.15813,0.7152 -0.08746,0.0889 -0.243297,0.19625 -0.446485,0.31626 -0.203185,0.12 -0.453755,0.25254 -0.667659,0.37569 -0.213904,0.12316 -0.391146,0.23698 -0.571541,0.36535 -0.133641,0.0951 -0.267249,0.2016 -0.397909,0.3142 0.115686,0.23933 0.228706,0.47632 0.292489,0.67386 0.06922,0.21438 0.0819,0.38321 0.04237,0.56895 -0.03953,0.18574 -0.131124,0.38841 -0.242879,0.56638 -0.09448,0.15046 -0.204123,0.28237 -0.315226,0.41238 0.05035,-0.002 0.09979,-0.002 0.150378,-0.008 0.17594,-0.0233 0.342906,-0.0651 0.510563,-0.0982 0.16766,-0.0331 0.335523,-0.0573 0.574642,-0.12144 0.239122,-0.0642 0.549326,-0.16823 0.807186,-0.25476 0.257862,-0.0865 0.463575,-0.15558 0.741557,-0.20826 0.277982,-0.0527 0.628032,-0.0893 0.972034,-0.10025 0.344,-0.011 0.682205,0.004 1.045414,0.23099 0.363209,0.22738 0.751451,0.66801 1.665015,1.22215 0.913563,0.55415 2.352458,1.22201 3.207039,1.66812 0.854581,0.44611 1.124966,0.67006 1.943034,1.11982 0.818068,0.44977 2.18354,1.12521 3.713985,1.85829 1.530448,0.73309 3.225768,1.52394 4.213178,2.01848 0.59681,0.29891 0.92089,0.48417 1.14257,0.63097 -0.0915,-0.23234 -0.17942,-0.46305 -0.20671,-0.66042 -0.0297,-0.2148 0.0108,-0.3909 0.0631,-0.54364 0.0523,-0.15275 0.11641,-0.2818 0.24908,-0.3514 0.13267,-0.0696 0.33395,-0.08 0.51883,-0.016 0.18489,0.064 0.35359,0.20207 0.55293,0.37569 0.19934,0.17362 0.4297,0.38262 0.62271,0.61391 0.17924,0.21479 0.32549,0.44945 0.47025,0.68472 0.005,-0.001 0.008,-0.004 0.0134,-0.005 0.0959,-0.0193 0.26622,-0.0197 0.5488,-0.0274 0.28259,-0.008 0.67728,-0.0229 0.97462,-0.0476 0.29733,-0.0248 0.49722,-0.0591 0.6289,-0.12919 0.13168,-0.0702 0.19511,-0.17633 0.28267,-0.31729 0.0876,-0.14095 0.19955,-0.31671 0.40049,-0.4563 0.20094,-0.13959 0.49076,-0.24325 0.8785,-0.3297 0.38774,-0.0864 0.87336,-0.15572 1.18443,-0.22531 0.31106,-0.0696 0.44766,-0.13908 0.53071,-0.27233 0.0831,-0.13324 0.11228,-0.33036 0.19637,-0.5271 0.0841,-0.19674 0.22311,-0.3932 0.99684,-0.63924 0.77374,-0.24603 2.18232,-0.54165 2.93677,-0.76119 0.75446,-0.21954 0.85476,-0.36337 0.9648,-0.49506 0.11005,-0.13169 0.22973,-0.25088 0.35554,-0.34572 0.0952,-0.0718 0.19509,-0.12904 0.38809,-0.1142 0.0392,-0.0732 0.08,-0.14568 0.1018,-0.22635 0.0275,-0.10187 0.0315,-0.21371 -0.0186,-0.38344 -0.0501,-0.16973 -0.15451,-0.39734 -0.30179,-0.5767 -0.13656,-0.16631 -0.31028,-0.29057 -0.48628,-0.41238 -0.005,-0.002 -0.0116,-0.003 -0.016,-0.005 -0.31803,-0.10909 -0.48643,-0.22259 -1.45262,-0.33952 -0.96622,-0.11694 -2.73024,-0.23718 -3.68092,-0.31884 -0.95068,-0.0816 -1.08817,-0.12464 -1.62005,-0.56689 -0.53188,-0.44225 -1.4582,-1.28366 -1.87689,-1.80713 -0.41869,-0.52348 -0.32971,-0.72911 -0.22841,-0.87591 0.10129,-0.14679 0.21504,-0.235 0.32866,-0.32298 0.002,-6.4e-4 0.008,-0.002 0.01,-0.003 -0.0605,-0.11418 -0.12141,-0.22815 -0.15865,-0.33693 -0.0405,-0.1183 -0.0554,-0.23086 -0.1173,-0.36846 -0.0619,-0.13761 -0.17096,-0.30037 -0.27492,-0.42478 -0.10396,-0.12441 -0.20287,-0.21038 -0.36897,-0.27698 -0.14332,-0.0575 -0.33884,-0.10006 -0.53899,-0.14108 -0.30492,0.0108 -0.66008,0.0283 -1.13016,0.0579 -1.63242,0.10282 -4.42873,0.32152 -6.57789,0.46974 -2.149154,0.14822 -3.650968,0.22585 -4.489649,0.25735 -0.838681,0.0315 -1.014167,0.0169 -1.460893,-0.33487 -0.446724,-0.35179 -1.164733,-1.04049 -1.598352,-1.69499 -0.433616,-0.65449 -0.583158,-1.27441 -0.994254,-2.86235 -0.411098,-1.58794 -1.083655,-4.14415 -1.376144,-5.79862 -0.292486,-1.65445 -0.204879,-2.40733 -0.06666,-3.17034 0.138212,-0.76301 0.32714,-1.53587 0.401009,-2.0681 0.07387,-0.53222 0.03259,-0.82366 -0.152962,-1.19837 -0.185556,-0.3747 -0.515267,-0.83271 -0.695565,-1.31568 -0.177142,-0.47452 -0.205749,-0.97644 -0.06925,-1.61334 -0.187173,-0.0262 -0.385257,-0.0484 -0.547254,-0.0832 -0.281945,-0.0606 -0.510473,-0.13965 -0.809253,-0.15555 -0.298781,-0.0159 -0.668168,0.0312 -0.999422,-0.0305 -0.331254,-0.0617 -0.624518,-0.23238 -1.053166,-0.478 -0.345243,-0.19783 -0.80362,-0.45813 -1.25367,-0.71417 z"
       style="display:inline;opacity:1;fill:#cb4b16;stroke:#002b36;stroke-width:0.1"
       id="path62"
       inkscape:label="left-leg" /><g
       id="g31"
       inkscape:label="nails"
       style="display:inline;stroke:#002b36"><path
         d="m 117.33289,178.11988 c 0.176,0.12181 0.34972,0.24607 0.48628,0.41238 0.14728,0.17936 0.25173,0.40697 0.30179,0.5767 0.0501,0.16973 0.0461,0.28157 0.0186,0.38344 -0.0218,0.0807 -0.0626,0.15319 -0.1018,0.22635 0.062,0.005 0.13266,0.0165 0.21704,0.0382 0.34714,0.0893 0.90973,0.33785 1.27485,0.48731 0.36515,0.14946 0.53257,0.20014 0.67542,0.23667 0.14284,0.0365 0.26101,0.0593 0.34881,0.0419 0.0878,-0.0175 0.14547,-0.0753 0.14728,-0.16795 0.002,-0.0926 -0.0526,-0.21999 -0.185,-0.40514 -0.13244,-0.18514 -0.34311,-0.4281 -0.68058,-0.6904 -0.33748,-0.26231 -0.80125,-0.54428 -1.26711,-0.73742 -0.45932,-0.19044 -0.9179,-0.29459 -1.23558,-0.40204 z"
         style="display:inline;opacity:1;fill:#002b36;stroke:#002b36;stroke-width:0.1"
         id="path64" /><path
         d="m 133.64869,169.5328 c 0.0812,0.0917 0.16085,0.18404 0.22273,0.28422 0.0718,0.11642 0.12066,0.24313 0.14366,0.35554 0.023,0.1124 0.0202,0.21071 0.006,0.35863 -0.0115,0.12133 -0.0325,0.28473 -0.0527,0.44545 0.0321,-0.0212 0.0713,-0.0319 0.1235,-0.0367 0.13108,-0.0121 0.32763,-0.012 0.68782,0.12093 0.36019,0.13295 0.88388,0.39893 1.17047,0.59117 0.28658,0.19226 0.3362,0.31052 0.39532,0.41032 0.0591,0.0998 0.12821,0.18086 0.20206,0.20773 0.0738,0.0269 0.15268,-1.6e-4 0.21187,-0.0444 0.0592,-0.0443 0.0985,-0.10587 0.10749,-0.1757 0.009,-0.0698 -0.0123,-0.14797 -0.0532,-0.24546 -0.0409,-0.0975 -0.10131,-0.21459 -0.17311,-0.32608 -0.0718,-0.11149 -0.15531,-0.21724 -0.28939,-0.36328 -0.13409,-0.14605 -0.31885,-0.33198 -0.54002,-0.52452 -0.22117,-0.19254 -0.47888,-0.39214 -0.83148,-0.555 -0.35258,-0.16287 -0.8003,-0.28896 -1.08417,-0.40463 -0.0801,-0.0326 -0.15571,-0.0647 -0.24701,-0.0982 z"
         style="display:inline;opacity:1;fill:#002b36;stroke:#002b36;stroke-width:0.1"
         id="path60" /><path
         d="m 107.33763,172.33315 c 0.20015,0.041 0.39567,0.0836 0.53899,0.14108 0.1661,0.0666 0.26501,0.15257 0.36897,0.27698 0.10396,0.12441 0.21298,0.28717 0.27492,0.42478 0.0619,0.1376 0.0768,0.25016 0.1173,0.36846 0.0372,0.10878 0.0981,0.22275 0.15865,0.33693 0.0852,-0.0259 0.1701,-0.0512 0.39739,-0.0982 0.23293,-0.0482 0.6118,-0.11841 0.86713,-0.1695 0.25534,-0.0511 0.38712,-0.0831 0.45682,-0.13126 0.0697,-0.0482 0.0772,-0.11225 0.0165,-0.20463 -0.0606,-0.0924 -0.18968,-0.21359 -0.49403,-0.37879 -0.30435,-0.1652 -0.78429,-0.37483 -1.25832,-0.48628 -0.33753,-0.0794 -0.69039,-0.1063 -1.44436,-0.0796 z"
         style="display:inline;opacity:1;fill:#002b36;stroke:#002b36;stroke-width:0.1"
         id="path63" /><path
         d="m 106.75679,184.41097 c -0.14476,-0.23527 -0.29101,-0.46993 -0.47025,-0.68472 -0.19301,-0.23129 -0.42337,-0.44029 -0.62271,-0.61391 -0.19934,-0.17362 -0.36804,-0.31174 -0.55293,-0.37569 -0.18488,-0.064 -0.38616,-0.0536 -0.51883,0.016 -0.13267,0.0696 -0.19677,0.19865 -0.24908,0.3514 -0.0523,0.15274 -0.0927,0.32884 -0.0631,0.54364 0.0273,0.19737 0.11521,0.42808 0.20671,0.66042 0.14508,0.0961 0.25434,0.17881 0.33951,0.25528 0.2153,0.19333 0.36669,0.38151 0.50281,0.5116 0.13612,0.13009 0.25699,0.20198 0.37724,0.29972 0.12024,0.0977 0.23991,0.2216 0.38137,0.33486 0.14146,0.11325 0.30473,0.21582 0.46096,0.26614 0.15623,0.0503 0.30501,0.0482 0.39635,-0.0109 0.0914,-0.059 0.1252,-0.17482 0.13488,-0.32557 0.01,-0.15075 -0.004,-0.33661 -0.0832,-0.53175 -0.0787,-0.19514 -0.2218,-0.39962 -0.28267,-0.52141 -0.0573,-0.11468 -0.0392,-0.15466 0.0429,-0.17518 z"
         style="display:inline;opacity:1;fill:#002b36;stroke:#002b36;stroke-width:0.1"
         id="path65" /><path
         d="m 83.800053,176.35048 c 0.111103,-0.13001 0.220745,-0.26192 0.315226,-0.41238 0.111755,-0.17797 0.203349,-0.38064 0.242879,-0.56638 0.03953,-0.18574 0.02685,-0.35457 -0.04237,-0.56895 -0.06378,-0.19754 -0.176803,-0.43453 -0.292489,-0.67386 -0.04571,0.0394 -0.09268,0.0766 -0.136942,0.11834 -0.170763,0.16117 -0.328823,0.34042 -0.4377,0.52451 -0.108877,0.1841 -0.16848,0.3726 -0.195854,0.57051 -0.02737,0.19792 -0.02244,0.40511 0.0083,0.57877 0.03065,0.17367 0.08711,0.31425 0.207739,0.38189 0.08594,0.0482 0.206494,0.0534 0.331246,0.0476 z"
         style="opacity:1;fill:#002b36;stroke-width:0.1"
         id="path66" /><path
         d="m 125.81351,175.4911 c -0.0289,-0.10318 -0.0579,-0.20617 -0.092,-0.31006 -0.0384,-0.11701 -0.0831,-0.2348 -0.19379,-0.38551 -0.11069,-0.15071 -0.28751,-0.33464 -0.44855,-0.50178 -0.16104,-0.16714 -0.30615,-0.31787 -0.49351,-0.43821 -0.18736,-0.12036 -0.41664,-0.21018 -0.56276,-0.15348 -0.14609,0.0567 -0.20892,0.26021 -0.18862,0.41083 0.0203,0.15063 0.1235,0.24859 0.2682,0.41289 0.1447,0.1643 0.33112,0.39508 0.47439,0.6258 0.13268,0.21364 0.22722,0.42719 0.3204,0.64079 0.20106,0.16223 0.35559,0.35955 0.45837,0.48111 0.14725,0.17415 0.19503,0.18891 0.23512,0.0181 0.0401,-0.17083 0.0722,-0.52716 0.15297,-0.70176 0.02,-0.0432 0.0433,-0.0747 0.0698,-0.0987 z"
         style="opacity:1;fill:#002b36;stroke-width:0.1"
         id="path61" /></g><path
       style="display:inline;opacity:0.75;fill:url(#linearGradient67);fill-opacity:1;stroke:#002b36;stroke-width:0.1;stroke-dasharray:none"
       d="m 116.67634,86.794299 c -2.52556,0.01232 -5.05112,0.02464 -7.5424,0.220501 -2.49128,0.195862 -4.94819,0.575251 -7.26149,0.939693 -2.313299,0.364442 -4.482864,0.713918 -7.020154,1.22369 -2.537291,0.509772 -5.442146,1.179806 -8.231972,2.172796 -2.789826,0.99299 -5.464457,2.30887 -7.957427,3.653136 -2.49297,1.344266 -4.804137,2.716837 -6.676509,3.869201 -1.872372,1.152364 -3.305847,2.084454 -4.769532,2.804144 -1.463685,0.71968 -2.957493,1.22693 -4.363811,1.65443 -1.406318,0.4275 -2.725058,0.77524 -4.441939,1.52996 -1.716882,0.75473 -3.831793,1.9164 -5.887895,3.10327 -2.056103,1.18687 -4.053276,2.39887 -5.309184,3.27628 -1.255909,0.87741 -1.770491,1.42018 -2.309517,1.84354 -0.539025,0.42335 -1.102456,0.72726 -1.672639,1.12186 -0.570182,0.3946 -1.147081,0.87986 -1.579717,1.36948 -0.432637,0.48963 -0.720987,0.98359 -0.817157,1.45051 -0.09617,0.46691 -1.53e-4,0.90675 0.390431,1.37701 0.390584,0.47026 1.075712,0.97093 2.194717,1.63131 1.119006,0.66038 2.671817,1.48044 4.200156,2.21264 1.528338,0.7322 3.032114,1.37651 4.346594,1.88031 1.314481,0.50379 2.439593,0.86705 3.630875,1.00698 1.191283,0.13994 2.448664,0.0566 3.646965,-0.16149 1.198301,-0.21804 2.33745,-0.57072 3.476622,-0.92341"
       id="path26"
       inkscape:path-effect="#path-effect26"
       inkscape:original-d="m 116.67634,86.794299 c -2.52556,0.01233 -5.05112,0.02463 -7.57668,0.03696 -2.457,0.379401 -4.91391,0.75879 -7.37086,1.138187 -2.169649,0.349488 -4.339214,0.698965 -6.508821,1.048448 -2.904974,0.67006 -5.809829,1.340096 -8.714745,2.010143 -2.674736,1.315932 -5.349367,2.631813 -8.02405,3.947718 -2.311258,1.372624 -4.622425,2.745195 -6.933634,4.117795 -1.433534,0.93213 -2.867009,1.86422 -4.300511,2.79633 -1.493869,0.50726 -2.987678,1.0145 -4.481515,1.52176 -1.318797,0.34775 -2.637539,0.69548 -3.956307,1.04323 -2.114994,1.16171 -4.229904,2.32338 -6.344856,3.48507 -1.997252,1.21205 -3.994425,2.42405 -5.991635,3.63607 -0.514607,0.5428 -1.029192,1.08557 -1.543788,1.62836 -0.563454,0.30392 -1.126885,0.60783 -1.690328,0.91175 -0.576919,0.48528 -1.153816,0.97054 -1.730727,1.4558 -0.288364,0.49399 -0.576717,0.98795 -0.865076,1.48193 0.09602,0.43985 0.192037,0.87969 0.288054,1.31953 0.685152,0.50068 1.370277,1.00135 2.055416,1.50202 1.552874,0.82009 3.105684,1.64015 4.658526,2.46022 1.503837,0.64433 3.007612,1.28864 4.511416,1.93296 1.125157,0.36327 2.250268,0.72653 3.375403,1.08979 1.25743,-0.0834 2.514812,-0.16677 3.772218,-0.25016 1.139195,-0.3527 2.278345,-0.70538 3.417517,-1.05807"
       inkscape:label="wing" /><ellipse
       style="display:inline;opacity:1;fill:#002b36;stroke:#002b36;stroke-width:0.1;stroke-dasharray:none"
       id="path16"
       cx="141.50911"
       cy="14.991888"
       rx="1.9453415"
       ry="1.5256417"
       transform="rotate(9.519481)"
       inkscape:label="eye" /></g></svg>
